STARTFONT 2.1
FONT -URW-ITC Bookman-Light-R-Normal--14-140-72-72-P-80-ISO8859-1
SIZE 14 72 72
FONTBOUNDINGBOX 24 18 -6 -4

STARTPROPERTIES 22
FONTNAME_REGISTRY "-"
FOUNDRY "URW"
FAMILY_NAME "ITC Bookman"
WEIGHT_NAME "Light"
SLANT "R"
SETWIDTH_NAME "Normal"
ADD_STYLE_NAME ""
PIXEL_SIZE 14
POINT_SIZE 140
RESOLUTION_X 72
RESOLUTION_Y 72
SPACING "P"
CHARSET_REGISTRY "ISO8859"
CHARSET_ENCODING "1"
FULL_NAME "Bookman-Light"
AVERAGE_WIDTH 80
WEIGHT 10
X_HEIGHT 7
QUAD_WIDTH 10
DEFAULT_CHAR 32
FONT_DESCENT 4
FONT_ASCENT 14
ENDPROPERTIES

CHARS 190

STARTCHAR space
ENCODING 32
SWIDTH 320 0
DWIDTH 4 0
BBX 1 1 0 0
BITMAP
00
ENDCHAR

STARTCHAR exclam
ENCODING 33
SWIDTH 300 0
DWIDTH 4 0
BBX 2 10 1 0
BITMAP
C0
C0
C0
C0
80
80
80
00
00
80
ENDCHAR

STARTCHAR quotedbl
ENCODING 34
SWIDTH 380 0
DWIDTH 5 0
BBX 4 3 1 7
BITMAP
90
90
90
ENDCHAR

STARTCHAR numbersign
ENCODING 35
SWIDTH 620 0
DWIDTH 8 0
BBX 7 10 1 0
BITMAP
44
44
44
FE
44
44
FE
44
44
44
ENDCHAR

STARTCHAR dollar
ENCODING 36
SWIDTH 620 0
DWIDTH 9 0
BBX 7 14 1 -2
BITMAP
10
10
7C
96
96
90
7C
12
D2
D2
92
7C
10
10
ENDCHAR

STARTCHAR percent
ENCODING 37
SWIDTH 900 0
DWIDTH 13 0
BBX 12 10 0 0
BITMAP
7040
8880
8900
8B00
8AE0
7510
0D10
0910
1110
20E0
ENDCHAR

STARTCHAR ampersand
ENCODING 38
SWIDTH 800 0
DWIDTH 11 0
BBX 10 10 1 0
BITMAP
1800
2400
2000
23C0
7900
8D00
8500
8300
C600
3DC0
ENDCHAR

STARTCHAR quoteright
ENCODING 39
SWIDTH 220 0
DWIDTH 3 0
BBX 1 2 1 8
BITMAP
80
80
ENDCHAR

STARTCHAR parenleft
ENCODING 40
SWIDTH 300 0
DWIDTH 4 0
BBX 3 12 1 -2
BITMAP
60
40
80
80
80
80
80
80
80
80
40
60
ENDCHAR

STARTCHAR parenright
ENCODING 41
SWIDTH 300 0
DWIDTH 4 0
BBX 3 12 0 -2
BITMAP
C0
40
20
20
20
20
20
20
20
20
40
C0
ENDCHAR

STARTCHAR asterisk
ENCODING 42
SWIDTH 440 0
DWIDTH 6 0
BBX 5 5 1 5
BITMAP
A8
70
F8
70
A8
ENDCHAR

STARTCHAR plus
ENCODING 43
SWIDTH 600 0
DWIDTH 8 0
BBX 7 7 1 1
BITMAP
10
10
10
FE
10
10
10
ENDCHAR

STARTCHAR comma
ENCODING 44
SWIDTH 320 0
DWIDTH 4 0
BBX 1 3 2 -1
BITMAP
80
80
80
ENDCHAR

STARTCHAR minus
ENCODING 45
SWIDTH 600 0
DWIDTH 8 0
BBX 7 1 1 4
BITMAP
FE
ENDCHAR

STARTCHAR period
ENCODING 46
SWIDTH 320 0
DWIDTH 4 0
BBX 1 1 2 0
BITMAP
80
ENDCHAR

STARTCHAR slash
ENCODING 47
SWIDTH 600 0
DWIDTH 8 0
BBX 6 12 1 -2
BITMAP
04
04
08
08
10
10
30
20
20
40
40
80
ENDCHAR

STARTCHAR zero
ENCODING 48
SWIDTH 620 0
DWIDTH 9 0
BBX 7 10 1 0
BITMAP
38
44
82
82
82
82
82
82
44
38
ENDCHAR

STARTCHAR one
ENCODING 49
SWIDTH 620 0
DWIDTH 9 0
BBX 5 10 2 0
BITMAP
E0
20
20
20
20
20
20
20
20
F8
ENDCHAR

STARTCHAR two
ENCODING 50
SWIDTH 620 0
DWIDTH 9 0
BBX 7 10 1 0
BITMAP
78
8C
84
84
04
08
10
22
C2
FE
ENDCHAR

STARTCHAR three
ENCODING 51
SWIDTH 620 0
DWIDTH 9 0
BBX 7 10 1 0
BITMAP
7C
86
82
04
1C
06
02
82
86
78
ENDCHAR

STARTCHAR four
ENCODING 52
SWIDTH 620 0
DWIDTH 9 0
BBX 8 10 0 0
BITMAP
0C
0C
14
24
24
44
84
FF
04
0E
ENDCHAR

STARTCHAR five
ENCODING 53
SWIDTH 620 0
DWIDTH 9 0
BBX 7 10 1 0
BITMAP
FC
80
80
F8
86
02
02
82
84
78
ENDCHAR

STARTCHAR six
ENCODING 54
SWIDTH 620 0
DWIDTH 9 0
BBX 7 10 1 0
BITMAP
3C
42
82
80
BC
C6
82
82
46
38
ENDCHAR

STARTCHAR seven
ENCODING 55
SWIDTH 620 0
DWIDTH 9 0
BBX 6 10 2 0
BITMAP
FC
84
08
18
10
30
20
20
60
60
ENDCHAR

STARTCHAR eight
ENCODING 56
SWIDTH 620 0
DWIDTH 9 0
BBX 7 10 1 0
BITMAP
3C
42
42
62
3C
66
82
82
C6
78
ENDCHAR

STARTCHAR nine
ENCODING 57
SWIDTH 620 0
DWIDTH 9 0
BBX 7 10 1 0
BITMAP
38
44
82
82
82
C6
7A
82
84
78
ENDCHAR

STARTCHAR colon
ENCODING 58
SWIDTH 320 0
DWIDTH 4 0
BBX 1 7 2 0
BITMAP
80
00
00
00
00
00
80
ENDCHAR

STARTCHAR semicolon
ENCODING 59
SWIDTH 320 0
DWIDTH 4 0
BBX 1 8 2 -1
BITMAP
80
00
00
00
00
80
80
80
ENDCHAR

STARTCHAR less
ENCODING 60
SWIDTH 600 0
DWIDTH 8 0
BBX 7 7 1 0
BITMAP
02
1C
70
80
70
1C
02
ENDCHAR

STARTCHAR equal
ENCODING 61
SWIDTH 600 0
DWIDTH 8 0
BBX 7 4 1 3
BITMAP
FE
00
00
FE
ENDCHAR

STARTCHAR greater
ENCODING 62
SWIDTH 600 0
DWIDTH 8 0
BBX 7 7 1 0
BITMAP
80
70
1C
02
1C
70
80
ENDCHAR

STARTCHAR question
ENCODING 63
SWIDTH 540 0
DWIDTH 8 0
BBX 6 10 1 0
BITMAP
78
84
84
84
18
20
20
00
00
20
ENDCHAR

STARTCHAR at
ENCODING 64
SWIDTH 820 0
DWIDTH 11 0
BBX 10 10 1 0
BITMAP
1E00
6180
4EC0
9240
A240
A240
A640
9B40
4080
3F00
ENDCHAR

STARTCHAR A
ENCODING 65
SWIDTH 680 0
DWIDTH 10 0
BBX 11 10 0 0
BITMAP
0800
0C00
0C00
1200
1200
1200
3F00
2100
4080
F1E0
ENDCHAR

STARTCHAR B
ENCODING 66
SWIDTH 740 0
DWIDTH 10 0
BBX 9 10 1 0
BITMAP
FF00
4180
4080
4180
7E00
4180
4080
4080
4180
FF00
ENDCHAR

STARTCHAR C
ENCODING 67
SWIDTH 740 0
DWIDTH 10 0
BBX 8 10 1 0
BITMAP
3D
63
41
81
80
80
80
C1
62
3C
ENDCHAR

STARTCHAR D
ENCODING 68
SWIDTH 800 0
DWIDTH 11 0
BBX 9 10 1 0
BITMAP
FE00
4300
4100
4080
4080
4080
4080
4100
4300
FE00
ENDCHAR

STARTCHAR E
ENCODING 69
SWIDTH 720 0
DWIDTH 10 0
BBX 9 10 1 0
BITMAP
FF00
4180
4480
4400
7C00
4400
4480
4180
4300
FF00
ENDCHAR

STARTCHAR F
ENCODING 70
SWIDTH 640 0
DWIDTH 9 0
BBX 9 10 0 0
BITMAP
FF00
4180
4480
4400
7C00
4400
4400
4000
4000
E000
ENDCHAR

STARTCHAR G
ENCODING 71
SWIDTH 800 0
DWIDTH 11 0
BBX 10 10 1 0
BITMAP
1F00
6300
4180
8080
8000
81C0
8080
4080
6180
1E80
ENDCHAR

STARTCHAR H
ENCODING 72
SWIDTH 800 0
DWIDTH 11 0
BBX 9 10 1 0
BITMAP
E380
4100
4100
4100
7F00
4100
4100
4100
4100
E380
ENDCHAR

STARTCHAR I
ENCODING 73
SWIDTH 340 0
DWIDTH 5 0
BBX 3 10 1 0
BITMAP
E0
40
40
40
40
40
40
40
40
E0
ENDCHAR

STARTCHAR J
ENCODING 74
SWIDTH 600 0
DWIDTH 8 0
BBX 7 10 0 0
BITMAP
0E
04
04
04
04
04
84
84
8C
78
ENDCHAR

STARTCHAR K
ENCODING 75
SWIDTH 720 0
DWIDTH 10 0
BBX 10 10 0 0
BITMAP
E780
4100
4200
4400
7800
4800
4400
4200
4100
E7C0
ENDCHAR

STARTCHAR L
ENCODING 76
SWIDTH 600 0
DWIDTH 8 0
BBX 8 10 1 0
BITMAP
E0
40
40
40
40
40
41
43
46
FE
ENDCHAR

STARTCHAR M
ENCODING 77
SWIDTH 920 0
DWIDTH 13 0
BBX 11 10 1 0
BITMAP
E0E0
60C0
51C0
5140
5140
4A40
4A40
4C40
4440
E4E0
ENDCHAR

STARTCHAR N
ENCODING 78
SWIDTH 740 0
DWIDTH 10 0
BBX 9 10 1 0
BITMAP
E380
6100
5100
5900
4900
4500
4500
4300
4300
E100
ENDCHAR

STARTCHAR O
ENCODING 79
SWIDTH 800 0
DWIDTH 11 0
BBX 9 10 1 0
BITMAP
3E00
6300
4100
8080
8080
8080
8080
4100
6300
1E00
ENDCHAR

STARTCHAR P
ENCODING 80
SWIDTH 620 0
DWIDTH 9 0
BBX 7 10 1 0
BITMAP
FC
46
42
42
46
7C
40
40
40
E0
ENDCHAR

STARTCHAR Q
ENCODING 81
SWIDTH 820 0
DWIDTH 11 0
BBX 10 12 1 -2
BITMAP
1E00
6180
4080
8040
8040
8040
8040
4040
3F80
40C0
40C0
3F80
ENDCHAR

STARTCHAR R
ENCODING 82
SWIDTH 720 0
DWIDTH 10 0
BBX 9 10 1 0
BITMAP
FE00
4300
4100
4100
4300
7E00
4800
4400
4200
E380
ENDCHAR

STARTCHAR S
ENCODING 83
SWIDTH 660 0
DWIDTH 9 0
BBX 8 10 1 0
BITMAP
7A
86
82
C0
3C
06
81
81
43
7C
ENDCHAR

STARTCHAR T
ENCODING 84
SWIDTH 620 0
DWIDTH 9 0
BBX 9 10 0 0
BITMAP
7F00
C980
8880
0800
0800
0800
0800
0800
0800
1C00
ENDCHAR

STARTCHAR U
ENCODING 85
SWIDTH 780 0
DWIDTH 11 0
BBX 10 10 0 0
BITMAP
E1C0
4080
4080
4080
4080
4080
4080
4080
6180
1F00
ENDCHAR

STARTCHAR V
ENCODING 86
SWIDTH 700 0
DWIDTH 10 0
BBX 11 10 0 0
BITMAP
F1E0
2080
2080
1100
1100
1100
0A00
0A00
0400
0400
ENDCHAR

STARTCHAR W
ENCODING 87
SWIDTH 960 0
DWIDTH 13 0
BBX 14 10 0 0
BITMAP
F79C
2308
2308
2310
1290
1290
14A0
0C60
0C60
0840
ENDCHAR

STARTCHAR X
ENCODING 88
SWIDTH 720 0
DWIDTH 10 0
BBX 11 10 0 0
BITMAP
79E0
3080
1100
0A00
0600
0A00
1300
3100
6080
F3E0
ENDCHAR

STARTCHAR Y
ENCODING 89
SWIDTH 640 0
DWIDTH 9 0
BBX 9 10 0 0
BITMAP
F380
2100
2300
1200
1C00
0C00
0800
0800
0800
1C00
ENDCHAR

STARTCHAR Z
ENCODING 90
SWIDTH 640 0
DWIDTH 9 0
BBX 10 10 0 0
BITMAP
7F80
4100
8200
0400
0C00
1800
1000
2040
40C0
FF80
ENDCHAR

STARTCHAR bracketleft
ENCODING 91
SWIDTH 300 0
DWIDTH 4 0
BBX 2 12 1 -2
BITMAP
C0
80
80
80
80
80
80
80
80
80
80
C0
ENDCHAR

STARTCHAR backslash
ENCODING 92
SWIDTH 600 0
DWIDTH 8 0
BBX 6 12 1 -2
BITMAP
80
40
40
20
20
30
10
10
08
08
04
04
ENDCHAR

STARTCHAR bracketright
ENCODING 93
SWIDTH 300 0
DWIDTH 4 0
BBX 2 12 1 -2
BITMAP
C0
40
40
40
40
40
40
40
40
40
40
C0
ENDCHAR

STARTCHAR asciicircum
ENCODING 94
SWIDTH 600 0
DWIDTH 8 0
BBX 7 5 1 5
BITMAP
10
28
6C
44
82
ENDCHAR

STARTCHAR underscore
ENCODING 95
SWIDTH 500 0
DWIDTH 7 0
BBX 7 1 0 -2
BITMAP
FE
ENDCHAR

STARTCHAR quoteleft
ENCODING 96
SWIDTH 220 0
DWIDTH 3 0
BBX 1 3 1 7
BITMAP
80
80
80
ENDCHAR

STARTCHAR a
ENCODING 97
SWIDTH 580 0
DWIDTH 8 0
BBX 8 7 0 0
BITMAP
78
84
84
7C
C4
84
7F
ENDCHAR

STARTCHAR b
ENCODING 98
SWIDTH 620 0
DWIDTH 9 0
BBX 8 10 0 0
BITMAP
C0
40
40
5C
62
41
41
41
42
7C
ENDCHAR

STARTCHAR c
ENCODING 99
SWIDTH 520 0
DWIDTH 7 0
BBX 6 7 1 0
BITMAP
78
C4
84
80
80
C4
78
ENDCHAR

STARTCHAR d
ENCODING 100
SWIDTH 620 0
DWIDTH 9 0
BBX 7 10 1 0
BITMAP
0C
04
04
7C
C4
84
84
84
CC
76
ENDCHAR

STARTCHAR e
ENCODING 101
SWIDTH 520 0
DWIDTH 7 0
BBX 6 7 1 0
BITMAP
78
84
FC
80
80
44
38
ENDCHAR

STARTCHAR f
ENCODING 102
SWIDTH 320 0
DWIDTH 4 0
BBX 5 10 1 0
BITMAP
38
40
40
E0
40
40
40
40
40
E0
ENDCHAR

STARTCHAR g
ENCODING 103
SWIDTH 540 0
DWIDTH 8 0
BBX 6 10 1 -3
BITMAP
7C
88
88
88
70
20
78
84
84
78
ENDCHAR

STARTCHAR h
ENCODING 104
SWIDTH 660 0
DWIDTH 9 0
BBX 8 10 1 0
BITMAP
C0
40
40
5C
62
42
42
42
42
E7
ENDCHAR

STARTCHAR i
ENCODING 105
SWIDTH 300 0
DWIDTH 4 0
BBX 3 10 1 0
BITMAP
40
00
00
C0
40
40
40
40
40
E0
ENDCHAR

STARTCHAR j
ENCODING 106
SWIDTH 300 0
DWIDTH 4 0
BBX 4 13 0 -3
BITMAP
10
00
00
30
10
10
10
10
10
10
10
10
E0
ENDCHAR

STARTCHAR k
ENCODING 107
SWIDTH 620 0
DWIDTH 9 0
BBX 7 10 1 0
BITMAP
C0
40
40
5E
48
70
50
48
44
EE
ENDCHAR

STARTCHAR l
ENCODING 108
SWIDTH 300 0
DWIDTH 4 0
BBX 3 10 1 0
BITMAP
C0
40
40
40
40
40
40
40
40
E0
ENDCHAR

STARTCHAR m
ENCODING 109
SWIDTH 940 0
DWIDTH 13 0
BBX 11 7 1 0
BITMAP
FDC0
4640
4440
4440
4440
4440
EEE0
ENDCHAR

STARTCHAR n
ENCODING 110
SWIDTH 660 0
DWIDTH 9 0
BBX 8 7 1 0
BITMAP
DC
62
42
42
42
42
E7
ENDCHAR

STARTCHAR o
ENCODING 111
SWIDTH 560 0
DWIDTH 8 0
BBX 6 7 1 0
BITMAP
78
CC
84
84
84
CC
78
ENDCHAR

STARTCHAR p
ENCODING 112
SWIDTH 620 0
DWIDTH 9 0
BBX 7 10 1 -3
BITMAP
FC
46
42
42
42
46
7C
40
40
E0
ENDCHAR

STARTCHAR q
ENCODING 113
SWIDTH 580 0
DWIDTH 8 0
BBX 7 10 1 -3
BITMAP
7C
44
84
84
84
C4
7C
04
04
0E
ENDCHAR

STARTCHAR r
ENCODING 114
SWIDTH 440 0
DWIDTH 6 0
BBX 5 7 1 0
BITMAP
F8
40
40
40
40
40
E0
ENDCHAR

STARTCHAR s
ENCODING 115
SWIDTH 520 0
DWIDTH 7 0
BBX 6 7 1 0
BITMAP
78
88
C0
78
04
84
F8
ENDCHAR

STARTCHAR t
ENCODING 116
SWIDTH 380 0
DWIDTH 5 0
BBX 5 10 0 0
BITMAP
40
40
40
F0
40
40
40
40
48
70
ENDCHAR

STARTCHAR u
ENCODING 117
SWIDTH 680 0
DWIDTH 10 0
BBX 8 7 1 0
BITMAP
C6
42
42
42
42
46
3B
ENDCHAR

STARTCHAR v
ENCODING 118
SWIDTH 520 0
DWIDTH 7 0
BBX 8 7 0 0
BITMAP
E7
62
26
24
14
18
18
ENDCHAR

STARTCHAR w
ENCODING 119
SWIDTH 780 0
DWIDTH 11 0
BBX 12 7 0 0
BITMAP
EEF0
4660
2640
2640
2B40
1980
1980
ENDCHAR

STARTCHAR x
ENCODING 120
SWIDTH 560 0
DWIDTH 8 0
BBX 8 7 0 0
BITMAP
F7
26
1C
18
2C
46
EF
ENDCHAR

STARTCHAR y
ENCODING 121
SWIDTH 540 0
DWIDTH 8 0
BBX 8 10 0 -3
BITMAP
E7
62
24
24
14
18
08
10
10
E0
ENDCHAR

STARTCHAR z
ENCODING 122
SWIDTH 480 0
DWIDTH 7 0
BBX 6 7 0 0
BITMAP
FC
C8
90
30
24
44
F8
ENDCHAR

STARTCHAR braceleft
ENCODING 123
SWIDTH 280 0
DWIDTH 4 0
BBX 3 12 0 -2
BITMAP
60
40
40
40
40
40
C0
40
40
40
40
60
ENDCHAR

STARTCHAR bar
ENCODING 124
SWIDTH 600 0
DWIDTH 8 0
BBX 1 10 4 0
BITMAP
80
80
80
80
80
80
80
80
80
80
ENDCHAR

STARTCHAR braceright
ENCODING 125
SWIDTH 280 0
DWIDTH 4 0
BBX 3 12 0 -2
BITMAP
C0
40
40
40
40
40
60
40
40
40
40
C0
ENDCHAR

STARTCHAR asciitilde
ENCODING 126
SWIDTH 600 0
DWIDTH 8 0
BBX 7 2 1 2
BITMAP
72
9C
ENDCHAR

STARTCHAR exclamdown
ENCODING 161
SWIDTH 300 0
DWIDTH 4 0
BBX 2 10 1 -3
BITMAP
40
00
00
40
40
40
40
40
C0
C0
ENDCHAR

STARTCHAR cent
ENCODING 162
SWIDTH 620 0
DWIDTH 9 0
BBX 5 8 2 2
BITMAP
20
78
A8
A0
A8
70
20
20
ENDCHAR

STARTCHAR sterling
ENCODING 163
SWIDTH 620 0
DWIDTH 9 0
BBX 8 10 0 0
BITMAP
1E
21
23
20
F8
20
27
61
B1
EE
ENDCHAR

STARTCHAR currency
ENCODING 164
SWIDTH 620 0
DWIDTH 8 0
BBX 7 7 1 1
BITMAP
82
7C
44
44
44
7C
82
ENDCHAR

STARTCHAR yen
ENCODING 165
SWIDTH 620 0
DWIDTH 9 0
BBX 9 10 0 0
BITMAP
F380
2100
2200
1200
7F00
0800
7F00
0800
0800
1C00
ENDCHAR

STARTCHAR brokenbar
ENCODING 166
SWIDTH 600 0
DWIDTH 8 0
BBX 1 10 4 0
BITMAP
80
80
80
80
00
00
80
80
80
80
ENDCHAR

STARTCHAR section
ENCODING 167
SWIDTH 520 0
DWIDTH 7 0
BBX 6 12 1 -2
BITMAP
38
44
44
40
F8
84
84
7C
08
88
88
70
ENDCHAR

STARTCHAR dieresis
ENCODING 168
SWIDTH 420 0
DWIDTH 6 0
BBX 3 1 1 9
BITMAP
A0
ENDCHAR

STARTCHAR copyright
ENCODING 169
SWIDTH 740 0
DWIDTH 10 0
BBX 10 10 0 0
BITMAP
1E00
6180
4C80
9240
A040
A040
9240
4C80
6180
1E00
ENDCHAR

STARTCHAR ordfeminine
ENCODING 170
SWIDTH 420 0
DWIDTH 6 0
BBX 5 6 1 4
BITMAP
F0
10
70
90
70
F8
ENDCHAR

STARTCHAR guillemotleft
ENCODING 171
SWIDTH 360 0
DWIDTH 5 0
BBX 4 5 1 1
BITMAP
50
A0
A0
A0
50
ENDCHAR

STARTCHAR logicalnot
ENCODING 172
SWIDTH 600 0
DWIDTH 8 0
BBX 7 4 1 1
BITMAP
FE
02
02
02
ENDCHAR

STARTCHAR hyphen
ENCODING 173
SWIDTH 400 0
DWIDTH 6 0
BBX 4 1 1 3
BITMAP
F0
ENDCHAR

STARTCHAR registered
ENCODING 174
SWIDTH 740 0
DWIDTH 10 0
BBX 10 10 0 0
BITMAP
1E00
6180
5E80
9240
9E40
9440
9240
5280
6180
1E00
ENDCHAR

STARTCHAR macron
ENCODING 175
SWIDTH 440 0
DWIDTH 6 0
BBX 4 1 1 8
BITMAP
F0
ENDCHAR

STARTCHAR degree
ENCODING 176
SWIDTH 400 0
DWIDTH 5 0
BBX 5 5 0 5
BITMAP
70
88
88
88
70
ENDCHAR

STARTCHAR plusminus
ENCODING 177
SWIDTH 600 0
DWIDTH 8 0
BBX 7 7 1 0
BITMAP
10
10
FE
10
10
00
FE
ENDCHAR

STARTCHAR twosuperior
ENCODING 178
SWIDTH 372 0
DWIDTH 5 0
BBX 4 6 -5 4
BITMAP
F0
90
10
20
60
F0
ENDCHAR

STARTCHAR threesuperior
ENCODING 179
SWIDTH 372 0
DWIDTH 5 0
BBX 4 6 -5 4
BITMAP
F0
90
70
10
90
E0
ENDCHAR

STARTCHAR acute
ENCODING 180
SWIDTH 340 0
DWIDTH 5 0
BBX 3 2 1 8
BITMAP
60
C0
ENDCHAR

STARTCHAR mu
ENCODING 181
SWIDTH 680 0
DWIDTH 10 0
BBX 7 10 1 -3
BITMAP
CC
44
44
44
44
44
7E
42
40
40
ENDCHAR

STARTCHAR paragraph
ENCODING 182
SWIDTH 600 0
DWIDTH 8 0
BBX 7 10 1 0
BITMAP
7E
D4
94
94
D4
74
14
14
14
3E
ENDCHAR

STARTCHAR periodcentered
ENCODING 183
SWIDTH 320 0
DWIDTH 7 0
BBX 2 2 3 4
BITMAP
C0
C0
ENDCHAR

STARTCHAR cedilla
ENCODING 184
SWIDTH 320 0
DWIDTH 4 0
BBX 3 4 1 -3
BITMAP
40
60
20
E0
ENDCHAR

STARTCHAR onesuperior
ENCODING 185
SWIDTH 372 0
DWIDTH 5 0
BBX 3 6 -6 4
BITMAP
C0
40
40
40
40
E0
ENDCHAR

STARTCHAR ordmasculine
ENCODING 186
SWIDTH 420 0
DWIDTH 6 0
BBX 4 6 1 4
BITMAP
60
90
90
90
60
F0
ENDCHAR

STARTCHAR guillemotright
ENCODING 187
SWIDTH 360 0
DWIDTH 5 0
BBX 4 5 1 1
BITMAP
A0
50
50
50
A0
ENDCHAR

STARTCHAR onequarter
ENCODING 188
SWIDTH 930 0
DWIDTH 12 0
BBX 11 10 3 0
BITMAP
C180
4300
4200
4400
4CC0
E940
1140
33E0
2040
40E0
ENDCHAR

STARTCHAR onehalf
ENCODING 189
SWIDTH 930 0
DWIDTH 12 0
BBX 11 10 3 0
BITMAP
C180
4300
4200
4400
4DC0
E920
1020
3040
2080
41E0
ENDCHAR

STARTCHAR threequarters
ENCODING 190
SWIDTH 930 0
DWIDTH 12 0
BBX 12 10 4 0
BITMAP
F0C0
9180
6100
1200
9660
E4A0
08A0
19F0
1020
2070
ENDCHAR

STARTCHAR questiondown
ENCODING 191
SWIDTH 540 0
DWIDTH 8 0
BBX 6 10 1 -3
BITMAP
10
00
00
10
10
60
84
84
84
78
ENDCHAR

STARTCHAR Agrave
ENCODING 192
SWIDTH 680 0
DWIDTH 10 0
BBX 11 13 0 0
BITMAP
0400
0200
0000
0800
0C00
0C00
1200
1200
1200
3F00
2100
4080
F1E0
ENDCHAR

STARTCHAR Aacute
ENCODING 193
SWIDTH 680 0
DWIDTH 10 0
BBX 11 13 0 0
BITMAP
0400
0800
0000
0800
0C00
0C00
1200
1200
1200
3F00
2100
4080
F1E0
ENDCHAR

STARTCHAR Acircumflex
ENCODING 194
SWIDTH 680 0
DWIDTH 10 0
BBX 11 13 0 0
BITMAP
0C00
1200
0000
0800
0C00
0C00
1200
1200
1200
3F00
2100
4080
F1E0
ENDCHAR

STARTCHAR Atilde
ENCODING 195
SWIDTH 680 0
DWIDTH 10 0
BBX 11 12 0 0
BITMAP
1E00
0000
0800
0C00
0C00
1200
1200
1200
3F00
2100
4080
F1E0
ENDCHAR

STARTCHAR Adieresis
ENCODING 196
SWIDTH 680 0
DWIDTH 10 0
BBX 11 12 0 0
BITMAP
1200
0000
0800
0C00
0C00
1200
1200
1200
3F00
2100
4080
F1E0
ENDCHAR

STARTCHAR Aring
ENCODING 197
SWIDTH 680 0
DWIDTH 10 0
BBX 11 14 0 0
BITMAP
0C00
1200
1200
0C00
0800
0C00
0C00
1200
1200
1200
3F00
2100
4080
F1E0
ENDCHAR

STARTCHAR AE
ENCODING 198
SWIDTH 1260 0
DWIDTH 18 0
BBX 17 10 0 0
BITMAP
00FF00
00C180
014480
024400
07FC00
084400
104400
204080
404180
E0FF80
ENDCHAR

STARTCHAR Ccedilla
ENCODING 199
SWIDTH 740 0
DWIDTH 10 0
BBX 8 14 1 -4
BITMAP
3D
63
41
81
80
80
80
C1
62
3C
08
1C
14
1C
ENDCHAR

STARTCHAR Egrave
ENCODING 200
SWIDTH 720 0
DWIDTH 10 0
BBX 9 13 1 0
BITMAP
0800
0400
0000
FF00
4180
4480
4400
7C00
4400
4480
4180
4300
FF00
ENDCHAR

STARTCHAR Eacute
ENCODING 201
SWIDTH 720 0
DWIDTH 10 0
BBX 9 13 1 0
BITMAP
0800
1000
0000
FF00
4180
4480
4400
7C00
4400
4480
4180
4300
FF00
ENDCHAR

STARTCHAR Ecircumflex
ENCODING 202
SWIDTH 720 0
DWIDTH 10 0
BBX 9 13 1 0
BITMAP
1800
2400
0000
FF00
4180
4480
4400
7C00
4400
4480
4180
4300
FF00
ENDCHAR

STARTCHAR Edieresis
ENCODING 203
SWIDTH 720 0
DWIDTH 10 0
BBX 9 12 1 0
BITMAP
2400
0000
FF00
4180
4480
4400
7C00
4400
4480
4180
4300
FF00
ENDCHAR

STARTCHAR Igrave
ENCODING 204
SWIDTH 340 0
DWIDTH 5 0
BBX 3 13 1 0
BITMAP
40
20
00
E0
40
40
40
40
40
40
40
40
E0
ENDCHAR

STARTCHAR Iacute
ENCODING 205
SWIDTH 340 0
DWIDTH 5 0
BBX 3 13 1 0
BITMAP
20
40
00
E0
40
40
40
40
40
40
40
40
E0
ENDCHAR

STARTCHAR Icircumflex
ENCODING 206
SWIDTH 340 0
DWIDTH 5 0
BBX 4 13 1 0
BITMAP
60
90
00
E0
40
40
40
40
40
40
40
40
E0
ENDCHAR

STARTCHAR Idieresis
ENCODING 207
SWIDTH 340 0
DWIDTH 5 0
BBX 3 12 1 0
BITMAP
A0
00
E0
40
40
40
40
40
40
40
40
E0
ENDCHAR

STARTCHAR Eth
ENCODING 208
SWIDTH 800 0
DWIDTH 11 0
BBX 9 10 1 0
BITMAP
FE00
4300
4100
4080
4080
F880
4080
4100
4300
FE00
ENDCHAR

STARTCHAR Ntilde
ENCODING 209
SWIDTH 740 0
DWIDTH 10 0
BBX 9 12 1 0
BITMAP
3C00
0000
E380
6100
5100
5900
4900
4500
4500
4300
4300
E100
ENDCHAR

STARTCHAR Ograve
ENCODING 210
SWIDTH 800 0
DWIDTH 11 0
BBX 9 13 1 0
BITMAP
0800
0400
0000
3E00
6300
4100
8080
8080
8080
8080
4100
6300
1E00
ENDCHAR

STARTCHAR Oacute
ENCODING 211
SWIDTH 800 0
DWIDTH 11 0
BBX 9 13 1 0
BITMAP
0400
0800
0000
3E00
6300
4100
8080
8080
8080
8080
4100
6300
1E00
ENDCHAR

STARTCHAR Ocircumflex
ENCODING 212
SWIDTH 800 0
DWIDTH 11 0
BBX 9 13 1 0
BITMAP
1800
2400
0000
3E00
6300
4100
8080
8080
8080
8080
4100
6300
1E00
ENDCHAR

STARTCHAR Otilde
ENCODING 213
SWIDTH 800 0
DWIDTH 11 0
BBX 9 12 1 0
BITMAP
1E00
0000
3E00
6300
4100
8080
8080
8080
8080
4100
6300
1E00
ENDCHAR

STARTCHAR Odieresis
ENCODING 214
SWIDTH 800 0
DWIDTH 11 0
BBX 9 12 1 0
BITMAP
1400
0000
3E00
6300
4100
8080
8080
8080
8080
4100
6300
1E00
ENDCHAR

STARTCHAR multiply
ENCODING 215
SWIDTH 600 0
DWIDTH 8 0
BBX 6 6 1 2
BITMAP
84
48
30
30
48
84
ENDCHAR

STARTCHAR Oslash
ENCODING 216
SWIDTH 800 0
DWIDTH 11 0
BBX 10 11 1 0
BITMAP
00C0
3F80
6300
4300
8480
8880
9880
9080
6100
6300
9E00
ENDCHAR

STARTCHAR Ugrave
ENCODING 217
SWIDTH 780 0
DWIDTH 11 0
BBX 10 13 0 0
BITMAP
0400
0200
0000
E1C0
4080
4080
4080
4080
4080
4080
4080
6180
1F00
ENDCHAR

STARTCHAR Uacute
ENCODING 218
SWIDTH 780 0
DWIDTH 11 0
BBX 10 13 0 0
BITMAP
0400
0800
0000
E1C0
4080
4080
4080
4080
4080
4080
4080
6180
1F00
ENDCHAR

STARTCHAR Ucircumflex
ENCODING 219
SWIDTH 780 0
DWIDTH 11 0
BBX 10 13 0 0
BITMAP
0C00
1200
0000
E1C0
4080
4080
4080
4080
4080
4080
4080
6180
1F00
ENDCHAR

STARTCHAR Udieresis
ENCODING 220
SWIDTH 780 0
DWIDTH 11 0
BBX 10 12 0 0
BITMAP
1400
0000
E1C0
4080
4080
4080
4080
4080
4080
4080
6180
1F00
ENDCHAR

STARTCHAR Yacute
ENCODING 221
SWIDTH 640 0
DWIDTH 9 0
BBX 9 12 0 0
BITMAP
1400
0000
F380
2100
2300
1200
1C00
0C00
0800
0800
0800
1C00
ENDCHAR

STARTCHAR Thorn
ENCODING 222
SWIDTH 620 0
DWIDTH 9 0
BBX 7 10 1 0
BITMAP
E0
40
7C
46
42
42
46
7C
40
E0
ENDCHAR

STARTCHAR germandbls
ENCODING 223
SWIDTH 660 0
DWIDTH 9 0
BBX 10 11 0 -1
BITMAP
0700
0880
1180
3200
1300
10C0
1040
1040
1080
3F00
E000
ENDCHAR

STARTCHAR agrave
ENCODING 224
SWIDTH 580 0
DWIDTH 8 0
BBX 8 10 0 0
BITMAP
10
08
00
78
84
84
7C
C4
84
7F
ENDCHAR

STARTCHAR aacute
ENCODING 225
SWIDTH 580 0
DWIDTH 8 0
BBX 8 10 0 0
BITMAP
08
10
00
78
84
84
7C
C4
84
7F
ENDCHAR

STARTCHAR acircumflex
ENCODING 226
SWIDTH 580 0
DWIDTH 8 0
BBX 8 10 0 0
BITMAP
18
24
00
78
84
84
7C
C4
84
7F
ENDCHAR

STARTCHAR atilde
ENCODING 227
SWIDTH 580 0
DWIDTH 8 0
BBX 8 9 0 0
BITMAP
3C
00
78
84
84
7C
C4
84
7F
ENDCHAR

STARTCHAR adieresis
ENCODING 228
SWIDTH 580 0
DWIDTH 8 0
BBX 8 9 0 0
BITMAP
28
00
78
84
84
7C
C4
84
7F
ENDCHAR

STARTCHAR aring
ENCODING 229
SWIDTH 580 0
DWIDTH 8 0
BBX 8 11 0 0
BITMAP
30
48
48
30
78
84
84
7C
C4
84
7F
ENDCHAR

STARTCHAR ae
ENCODING 230
SWIDTH 860 0
DWIDTH 12 0
BBX 10 7 1 0
BITMAP
7780
88C0
8840
7FC0
8800
8C40
7380
ENDCHAR

STARTCHAR ccedilla
ENCODING 231
SWIDTH 520 0
DWIDTH 7 0
BBX 6 11 1 -4
BITMAP
78
C4
84
80
80
C4
78
20
30
10
70
ENDCHAR

STARTCHAR egrave
ENCODING 232
SWIDTH 520 0
DWIDTH 7 0
BBX 6 10 1 0
BITMAP
20
10
00
78
84
FC
80
80
44
38
ENDCHAR

STARTCHAR eacute
ENCODING 233
SWIDTH 520 0
DWIDTH 7 0
BBX 6 10 1 0
BITMAP
10
20
00
78
84
FC
80
80
44
38
ENDCHAR

STARTCHAR ecircumflex
ENCODING 234
SWIDTH 520 0
DWIDTH 7 0
BBX 6 10 1 0
BITMAP
30
48
00
78
84
FC
80
80
44
38
ENDCHAR

STARTCHAR edieresis
ENCODING 235
SWIDTH 520 0
DWIDTH 7 0
BBX 6 9 1 0
BITMAP
50
00
78
84
FC
80
80
44
38
ENDCHAR

STARTCHAR igrave
ENCODING 236
SWIDTH 300 0
DWIDTH 4 0
BBX 3 10 1 0
BITMAP
80
40
00
C0
40
40
40
40
40
E0
ENDCHAR

STARTCHAR iacute
ENCODING 237
SWIDTH 300 0
DWIDTH 4 0
BBX 3 10 1 0
BITMAP
20
40
00
C0
40
40
40
40
40
E0
ENDCHAR

STARTCHAR icircumflex
ENCODING 238
SWIDTH 300 0
DWIDTH 4 0
BBX 4 10 2 0
BITMAP
60
90
00
60
20
20
20
20
20
70
ENDCHAR

STARTCHAR idieresis
ENCODING 239
SWIDTH 300 0
DWIDTH 4 0
BBX 3 9 1 0
BITMAP
A0
00
C0
40
40
40
40
40
E0
ENDCHAR

STARTCHAR eth
ENCODING 240
SWIDTH 560 0
DWIDTH 8 0
BBX 6 11 1 0
BITMAP
10
E0
70
98
7C
CC
84
84
84
CC
78
ENDCHAR

STARTCHAR ntilde
ENCODING 241
SWIDTH 660 0
DWIDTH 9 0
BBX 8 9 1 0
BITMAP
3C
00
DC
62
42
42
42
42
E7
ENDCHAR

STARTCHAR ograve
ENCODING 242
SWIDTH 560 0
DWIDTH 8 0
BBX 6 10 1 0
BITMAP
20
10
00
78
CC
84
84
84
CC
78
ENDCHAR

STARTCHAR oacute
ENCODING 243
SWIDTH 560 0
DWIDTH 8 0
BBX 6 10 1 0
BITMAP
10
20
00
78
CC
84
84
84
CC
78
ENDCHAR

STARTCHAR ocircumflex
ENCODING 244
SWIDTH 560 0
DWIDTH 8 0
BBX 6 10 1 0
BITMAP
30
48
00
78
CC
84
84
84
CC
78
ENDCHAR

STARTCHAR otilde
ENCODING 245
SWIDTH 560 0
DWIDTH 8 0
BBX 6 9 1 0
BITMAP
78
00
78
CC
84
84
84
CC
78
ENDCHAR

STARTCHAR odieresis
ENCODING 246
SWIDTH 560 0
DWIDTH 8 0
BBX 6 9 1 0
BITMAP
50
00
78
CC
84
84
84
CC
78
ENDCHAR

STARTCHAR divide
ENCODING 247
SWIDTH 600 0
DWIDTH 8 0
BBX 7 7 1 1
BITMAP
10
00
00
FE
00
00
10
ENDCHAR

STARTCHAR oslash
ENCODING 248
SWIDTH 560 0
DWIDTH 8 0
BBX 6 7 1 0
BITMAP
74
C8
94
A4
A4
4C
B8
ENDCHAR

STARTCHAR ugrave
ENCODING 249
SWIDTH 680 0
DWIDTH 10 0
BBX 8 10 1 0
BITMAP
10
08
00
C6
42
42
42
42
46
3B
ENDCHAR

STARTCHAR uacute
ENCODING 250
SWIDTH 680 0
DWIDTH 10 0
BBX 8 10 1 0
BITMAP
08
10
00
C6
42
42
42
42
46
3B
ENDCHAR

STARTCHAR ucircumflex
ENCODING 251
SWIDTH 680 0
DWIDTH 10 0
BBX 8 10 1 0
BITMAP
18
24
00
C6
42
42
42
42
46
3B
ENDCHAR

STARTCHAR udieresis
ENCODING 252
SWIDTH 680 0
DWIDTH 10 0
BBX 8 9 1 0
BITMAP
14
00
C6
42
42
42
42
46
3B
ENDCHAR

STARTCHAR yacute
ENCODING 253
SWIDTH 540 0
DWIDTH 8 0
BBX 8 13 0 -3
BITMAP
08
10
00
E7
62
24
24
14
18
08
10
10
E0
ENDCHAR

STARTCHAR thorn
ENCODING 254
SWIDTH 620 0
DWIDTH 9 0
BBX 7 13 1 -3
BITMAP
C0
40
40
7C
46
42
42
42
46
7C
40
40
E0
ENDCHAR

STARTCHAR ydieresis
ENCODING 255
SWIDTH 540 0
DWIDTH 8 0
BBX 8 12 0 -3
BITMAP
14
00
E7
62
24
24
14
18
08
10
10
E0
ENDCHAR
ENDFONT
